<?xml version="1.0" encoding="UTF-8"?>
<svg id="Ebene_1" data-name="Ebene 1" xmlns="http://www.w3.org/2000/svg" viewBox="0 0 956.1 836.02">
  <defs>
    <style>
      .cls-1 {
        fill: #fff;
      }
    </style>
  </defs>
  <path class="cls-1" d="M613.68,466.13c-11.87-2.05-27.02-14.48-25.21-27.44,11.46,30.95,56.99,18.14,50.11-15-.91-4.34-5.01-7-5.51-11.29,9.8-2.87,20.28-7.03,30.5-2.73,3.73,29.08-17.74,61.99-49.89,56.47Z"/>
  <path class="cls-1" d="M369.87,440.16c-1.56,11.89-13.13,23.29-24.75,25.67-33.31,6.83-53.78-25.78-52.78-55.41,9.31-5.92,21.13-.61,30.76,1.97-9.88,15.37-6.83,36.96,12.35,42.46,16.98,4.87,24.49-2.54,34.42-14.69Z"/>
  <path class="cls-1" d="M839.46,330.94c19.31-108.93,22.74-220.91,11.45-330.88-1.36-1.24-28.66,16.27-32.03,18.39-68.28,43.15-133.04,95.71-196.93,145.03-94.91-11.55-191.63-11.9-286.49.42l-3.55-.82c-49.55-40.35-100.59-79.45-153.08-115.98C154.96,30.53,130.96,13.7,105.26.06c-11.21,109.98-7.88,221.94,11.45,330.88L0,445.28c9.97,10.56,20.84,20.16,32.28,29.1,4.55,3.54,29.1,22.05,32.44,21.19,65.82-62.86,128.68-129.21,199.4-186.63,38.1,11.7,76.4,25.47,110.02,47.27,9.04,5.86,28.94,19.91,34.35,28.53,7.22,11.51,16.41,56.01,11.45,68.21l-155.35,173.73c-2.32,1.46-36.03-14.56-41.45-17.11-25.13-11.78-50.68-27.49-75.97-38.07-1.16-.47-7.98-4.43-6.83-.48,45.05,45.36,95.94,84.85,146.34,124.15,49.58,38.64,100.11,76.91,151.45,113.2,8.86,6.26,30.65,23.72,38.95,26.96,2.46.95,2.46.94,4.9,0,6.14-2.37,25.66-18.14,32.52-23.17,87.64-64.16,188.47-137.38,269.18-208.94,4.68-4.14,27.74-24.43,29.21-27.81,1.92-4.42-6.35-.29-7.24.07-26.61,10.75-53.03,25.69-79.48,37.49-5.1,2.27-31.82,14.86-34.58,13.69l-155.73-174.81c-4.33-9.46,6.92-57.56,12.76-67.59,4.77-8.16,27.55-23.86,36.3-29.49,33.13-21.27,70.99-34.71,108.52-45.95,68.43,58.59,132,122.48,195.53,186.27,3.41,1.68,22.24-12.11,26.11-14.86,5.86-4.15,40.27-31.01,41-35.13-36.23-40.33-77.36-76.57-116.63-114.13ZM171.05,296.87c-15.28-61-19.26-124.78-10.23-187.15,2.16-2.25,36.35,23.32,40.15,26.36,15.35,12.28,30.4,26.58,44.65,40.15,8.98,8.52,17.34,19.48,27.77,25.63l-102.33,95.01ZM492.63,674.75c-3.23,5.38-.53,13.48,1.93,18.7,10.4,22.15,49.6,27.6,71.25,30.38-26.92,21.36-56.77,38.8-86.98,55.03l-89.92-53.6,41.23-9.18c17.25-5.69,37.52-17.14,35.57-38.4-.38-4.14-25.81-24.65-30.78-29.89-16.17-16.99-49.43-59-12.37-72.35,16.45-5.94,74.93-5.29,94.23-3.67,77.64,6.51,4.11,82.6-24.17,102.96ZM784.4,296.87l-100.13-94.31c35.46-32.58,68.03-69.93,111.08-92.84,10.25,61.75,6.54,127.13-10.95,187.15Z"/>
</svg>