<?xml version="1.0" encoding="UTF-8"?>
<svg id="Ebene_1" data-name="Ebene 1" xmlns="http://www.w3.org/2000/svg" viewBox="0 0 171.27 39">
  <defs>
    <style>
      .cls-1 {
        fill: #a58f6a;
      }

      .cls-2 {
        fill: #2d2825;
      }
    </style>
  </defs>
  <g>
    <polygon class="cls-2" points="22.19 0 22.19 25.14 11.1 39 0 25.14 0 0 1.19 0 1.19 24.73 11.1 37.09 21 24.73 21 0 22.19 0"/>
    <polygon class="cls-1" points="21 0 21 24.73 11.1 37.09 1.19 24.73 1.19 0 2.39 0 2.39 24.31 11.1 35.18 19.81 24.31 19.81 0 21 0"/>
    <path class="cls-2" d="M2.38,0v24.31l8.71,10.87,8.72-10.87V0H2.38ZM16.22,18.58c-.89.35-1.83.23-2.76.23-.01-.08.05-.1.1-.13.16-.06.42-.08.6-.14,1.59-.49,3.4-1.89,2.08-3.65l-.89-.77c.21,0,.43.01.64.04,2.43.34,2.32,3.58.23,4.42ZM11.34,17.2c.05-.02.27-.95.32-1.09.04-.12.09-.26.14-.38.02-.06.06-.18.12-.21v3.32h-1.19l.02-3.32c.25.5.41,1.05.54,1.59.01.03-.03.11.05.09ZM11.31,15.45c-.22-.7-.58-1.29-1.31-1.53-.37-.13-.78-.18-1.16-.27.56-.17,1.23-.24,1.7-.62.28-.22.48-.52.67-.82.05-.08.06-.21.15-.19.36,1.11,1.46,1.46,2.52,1.63-.46.13-.96.17-1.4.35-.66.27-.92.83-1.17,1.45ZM10.77,10.15c-.01-.26-.05-.51-.04-.77,0-.2.08-.45,0-.65l.61.31.58-.31v3.12l-.24-.48c-.16-.38-.21-.8-.32-1.19-.01-.05.02-.06-.07-.05-.12.49-.22,1.03-.41,1.49-.04.08-.08.21-.15.26.06-.57.04-1.16.04-1.73ZM8.4,9.15c-.61-.08-.75-1.12-.52-1.57.17-.34.44-.28.73-.32.53-.08,1.06-.18,1.6-.24-.03-.65-.06-1.3-.04-1.94.01-.27.12-.88.04-1.09-.07-.2-.23-.34-.27-.61-.35-2.24,2.99-2.27,2.78-.12-.03.36-.33.68-.35.8-.01.13.07.48.07.63.04.77.05,1.53-.02,2.3l2.01.33c.69.18.43,1.83-.19,1.83h-.99v1.94c0,.11.19.32.28.39.54.41,1.4.93,1.99,1.29.09.05.18.1.28.13.02.08-.01.05-.04.07-.17.11-.61.27-.8.22l-1.99-1.26c-.2-.17-.33-.43-.35-.7v-2.61s.06-.08.08-.1c.21-.12,1.05.04,1.33-.04.15-.04.2-.35.09-.47-.15-.17-1.76-.35-2.1-.44-.23-.06-.22-.17-.21-.4.04-.84.1-1.71.04-2.55-.02-.22-.15-.78-.13-.94.01-.03.18-.2.22-.29.15-.32.09-.66-.2-.87-.56-.43-1.33.18-1.05.85.05.13.17.19.2.26.05.1-.08.65-.09.82-.06.78-.02,1.53,0,2.3,0,.15.02.61-.03.72-.07.14-.64.15-.82.19-.47.09-.93.2-1.4.31-.15.08-.12.46.03.51.25.06,1.21-.07,1.36.04.04.02.06.07.07.11-.02.83.09,1.78.02,2.6-.06.66-.59.89-1.1,1.18-.54.31-1.19.7-1.84.54-.04-.01-.17-.04-.17-.09.39-.09.68-.4,1.01-.62.3-.2,1.21-.7,1.38-.96.02-.02.09-.17.09-.19v-1.94c-.31-.03-.7.04-1,0ZM5.43,14.57c.59-.47,1.26-.46,1.98-.52-.46.5-1.05.75-1.34,1.41-.44,1,.24,2.12,1.17,2.56.12.05.35.15.44.03.11-.14-.12-.51-.16-.67-.07-.28-.03-.6.12-.84.02-.04.21-.3.26-.25.05,1.1,1.02,1.92,2.06,2.1l.03.45h-1.8c-1-.01-1.9.09-2.72-.59-1.13-.93-1.2-2.74-.04-3.68ZM7.23,22.34c-1.28-.06-3.04-.91-3.66-2.05-.29-.52.16-.41.57-.4.93.03,2-.04,2.9.03.07.01.13.02.19.04v2.38ZM18.49,20.54c-.48.14-.97.2-1.45.36-1.34.46-3.32,1.75-3.16,3.38.08.76.66,1.32,1.3,1.67.17.09.31.03.34.29.02.15.04.6-.1.66h-2.01c-.1,0-.3-.31-.42-.4-.76-.58-2.52-.56-3.27.02-.13.1-.29.37-.41.39-.58-.02-1.22.06-1.78.01-.07,0-.13,0-.19-.04-.05-.24-.14-.71.12-.83.45-.21.74-.23,1.15-.6.94-.83.91-2.33-.27-2.91-.14-.07-.49-.13-.53-.27v-2.56l.05-.08c2.89-.05,5.77.01,8.66-.02.62,0,1.27-.09,1.89-.04.08,0,.24.03.28.11.07.15-.04.75-.2.86Z"/>
    <g>
      <path class="cls-1" d="M15.76,12.97c-.17.11-.6.27-.8.22l-1.99-1.26c-.2-.17-.33-.43-.35-.69v-2.62s.06-.08.09-.1c.2-.12,1.04.04,1.32-.04.16-.05.2-.35.1-.47-.16-.18-1.77-.35-2.11-.44-.23-.06-.21-.17-.2-.39.03-.84.1-1.71.04-2.55-.02-.22-.15-.79-.13-.95,0-.03.18-.19.22-.29.14-.32.08-.65-.2-.87-.57-.43-1.33.18-1.06.85.05.13.17.19.2.26.05.11-.07.65-.09.82-.06.78-.02,1.53,0,2.31,0,.15.02.6-.03.71-.07.14-.64.16-.82.19-.47.09-.94.2-1.4.31-.15.08-.13.46.03.51.25.06,1.21-.07,1.36.04.03.02.05.07.07.11-.03.84.09,1.78.02,2.61-.06.65-.59.89-1.1,1.18-.55.31-1.2.7-1.84.54-.04-.01-.17-.04-.17-.09.39-.09.68-.4,1.01-.62.31-.2,1.22-.7,1.38-.96.02-.03.09-.18.09-.19v-1.94c-.31-.03-.7.04-1,0-.62-.09-.75-1.12-.52-1.57.17-.34.44-.27.73-.32.53-.08,1.06-.18,1.6-.24-.03-.65-.06-1.29-.04-1.94,0-.27.12-.87.04-1.09-.07-.2-.23-.33-.27-.6-.35-2.24,2.99-2.27,2.78-.12-.03.36-.33.69-.35.81-.02.12.06.48.07.63.04.77.04,1.53-.02,2.29l2.01.34c.69.17.43,1.83-.19,1.83h-1v1.94c0,.11.19.32.28.38.54.41,1.4.93,1.99,1.29.09.05.18.1.28.13.02.08,0,.06-.04.08Z"/>
      <path class="cls-1" d="M13.88,13.65c-.46.13-.95.17-1.4.35-.66.27-.92.83-1.17,1.45-.22-.7-.58-1.29-1.3-1.53-.38-.13-.78-.17-1.16-.27.56-.17,1.23-.24,1.7-.61.28-.22.49-.53.68-.83.05-.08.06-.21.15-.19.36,1.11,1.46,1.46,2.52,1.63Z"/>
      <g>
        <path class="cls-1" d="M10,18.84h-1.8c-1.01-.01-1.9.09-2.73-.6-1.12-.93-1.2-2.74-.04-3.67.59-.47,1.26-.47,1.98-.53-.46.5-1.05.75-1.34,1.41-.44,1,.24,2.12,1.16,2.56.12.06.35.16.45.03.1-.14-.13-.51-.16-.67-.07-.28-.03-.6.12-.85.02-.04.21-.3.26-.25.06,1.1,1.03,1.92,2.06,2.1l.04.45Z"/>
        <path class="cls-1" d="M16.22,18.58c-.89.36-1.83.23-2.76.23-.01-.07.05-.1.1-.12.16-.06.42-.08.59-.14,1.59-.49,3.4-1.89,2.08-3.66l-.89-.77c.21,0,.43,0,.64.04,2.43.34,2.32,3.59.23,4.42Z"/>
        <path class="cls-1" d="M11.92,18.84h-1.19l.02-3.32c.25.5.41,1.05.54,1.59,0,.03-.02.11.05.09.05-.02.27-.94.32-1.08.04-.12.09-.26.14-.39.02-.06.07-.18.12-.21v3.32Z"/>
      </g>
      <path class="cls-1" d="M11.92,8.73v3.11l-.24-.48c-.16-.38-.21-.8-.32-1.18-.02-.05.02-.06-.07-.05-.12.49-.22,1.03-.41,1.49-.03.08-.07.21-.15.26.06-.57.04-1.16.04-1.73,0-.25-.04-.51-.04-.77,0-.2.08-.45,0-.65l.61.31.58-.31Z"/>
      <g>
        <path class="cls-1" d="M18.5,20.54c-.48.14-.98.21-1.45.37-1.34.45-3.32,1.75-3.16,3.37.08.76.66,1.32,1.3,1.67.17.09.31.03.34.29.02.15.04.6-.11.66h-2c-.11-.01-.31-.31-.43-.4-.76-.58-2.51-.56-3.27.02-.13.1-.29.36-.41.39-.57-.02-1.21.06-1.78,0-.06,0-.13,0-.18-.04-.05-.24-.14-.7.12-.83.45-.21.74-.23,1.15-.6.94-.83.91-2.33-.27-2.91-.14-.07-.49-.13-.53-.27v-2.56s.05-.09.05-.09c2.89-.05,5.77,0,8.66-.02.62,0,1.27-.1,1.89-.04.08,0,.24.03.28.11.08.15-.04.75-.19.86Z"/>
        <path class="cls-1" d="M7.23,19.96v2.38c-1.28-.06-3.04-.91-3.67-2.05-.28-.52.17-.41.57-.4.93.03,2-.04,2.9.03.07,0,.13.02.19.04Z"/>
      </g>
    </g>
  </g>
  <g>
    <path class="cls-1" d="M55.98,32.11h-15.55v-.48c.9-.13,3.2-.26,3.2-2.18,0-.54-.16-1.34-.51-2.4-.77-2.24-1.86-5.15-1.86-5.15h-6.5s-1.25,3.42-1.7,4.86c-.42,1.28-.58,2.24-.58,2.88,0,1.89,1.92,1.89,2.75,1.98v.48h-9.31v-.48c.61-.03,1.57-.13,2.46-.8.86-.64,1.47-1.57,3.1-5.25,2.08-4.64,5.63-13.98,5.63-13.98-.7-1.22-2.08-1.31-3.26-1.41v-.48c3.1.03,5.86.06,8,.06,2.78,0,4.61-.03,4.99-.03,2.72-.03,3.01,0,3.36-.64l.35-.03,1.41,5.12-.42.1s-.42-1.47-1.76-2.27c-.7-.42-1.6-.7-3.52-.8-.8-.03-5.28-.06-5.28-.06l3.26,8.8s2.85-.03,3.42-.06c2.78-.13,2.82-.77,2.82-1.95,0-.35-.16-1.02-.16-1.02l.45-.13,2.24,7.33-.42.13s-.58-1.34-1.02-1.76c-.48-.45-.99-.86-3.26-.93-.64-.03-3.52-.03-3.52-.03,0,0,1.44,4,1.89,5.09,1.44,3.52,2.59,4.29,4.96,4.29,3.17,0,4.58-3.26,4.93-5.09l.42.06s-.19,3.71-1.02,6.24ZM38.06,13.26l-2.69,6.94h5.25l-2.56-6.94Z"/>
    <path class="cls-1" d="M65.51,24.24c-4.61,0-8.03-2.88-8.03-7.42s3.58-7.39,8.06-7.39c4.7,0,7.97,2.98,7.97,7.36s-3.55,7.45-8,7.45ZM69.19,12.52c-.9-1.41-2.05-2.24-3.62-2.24-1.86,0-3.3,1.06-4.06,2.78-.51,1.18-.77,2.24-.77,3.74,0,1.79.42,3.04,1.02,4.13.86,1.5,2.21,2.43,3.78,2.43,1.76,0,3.04-.99,3.9-2.66.51-1.02.83-2.14.83-3.97,0-1.54-.42-3.1-1.09-4.22Z"/>
    <path class="cls-1" d="M91.5,10.51c-.64.32-.9.64-.96,2.82-.06,1.79-.06,4.74-.06,8.54,0,.51.06,2.3.06,2.3l-.8.1s-7.55-8-10.5-11.17l-.06.03s0,4.61.03,6.46c.03,2.27.13,3.1.74,3.39.9.42,2.05.51,2.05.51v.42h-6.78v-.42s1.25-.13,1.92-.48c.64-.32.8-1.12.86-2.98.06-1.7.16-8.03.16-8.03-1.44-1.7-2.21-1.7-3.36-1.89v-.42h7.07v.42s-1.15.03-1.25.64c3.52,3.94,8.83,9.31,8.83,9.31,0,0-.03-4.22-.19-6.82-.13-1.89-.32-2.4-.93-2.69-.77-.35-1.82-.45-1.82-.45v-.42h6.66v.42s-.96.03-1.66.38Z"/>
    <path class="cls-1" d="M105.68,13.07h-.42s-.03-1.25-.7-1.86c-.32-.32-1.12-.45-1.86-.51-1.12-.1-3.01-.06-3.01-.06-.03,1.76-.03,5.47-.03,5.47,0,0,1.47,0,2.75-.03.58,0,1.15-.19,1.28-.38.35-.45.48-1.54.48-1.54h.38v5.09h-.38s-.13-.83-.29-1.31c-.13-.35-.42-.77-1.47-.8-1.18-.03-2.75-.03-2.75-.03,0,0,0,2.85.03,3.58.1,1.63.26,1.89.77,2.27s2.18.54,2.18.54v.42h-8.38v-.42s1.47-.16,1.98-.54c.58-.42.67-.86.77-2.37.03-.58.06-2.5.06-3.62,0-1.5,0-3.74-.06-4.45-.1-1.41-.45-1.63-.9-1.89-.7-.42-1.89-.51-1.89-.51v-.42s2.98.03,3.87.03h5.82c1.18,0,1.47-.13,1.66-.42h.29l-.19,3.74Z"/>
    <path class="cls-1" d="M115.31,24.24c-4.61,0-8.03-2.88-8.03-7.42s3.58-7.39,8.06-7.39c4.7,0,7.97,2.98,7.97,7.36s-3.55,7.45-8,7.45ZM118.99,12.52c-.9-1.41-2.05-2.24-3.62-2.24-1.86,0-3.3,1.06-4.06,2.78-.51,1.18-.77,2.24-.77,3.74,0,1.79.42,3.04,1.02,4.13.86,1.5,2.21,2.43,3.78,2.43,1.76,0,3.04-.99,3.9-2.66.51-1.02.83-2.14.83-3.97,0-1.54-.42-3.1-1.09-4.22Z"/>
    <path class="cls-1" d="M140.33,24.04c-2.37,0-4.48-.77-5.95-2.82-.96-1.41-1.47-2.81-1.79-3.58l-2.18.51s0,.99.1,2.5c.03.67.1,1.92.9,2.37.58.32,1.92.48,1.92.48v.42h-8.22v-.42s1.47-.16,2.02-.58c.51-.38.67-.7.74-2.46.03-.96.06-2.4.06-3.46,0-1.44,0-3.2-.06-4.19-.1-1.57-.48-1.92-.83-2.14-.74-.45-1.95-.54-1.95-.54v-.42s4.38-.06,6.27-.06c3.49,0,6.33,1.06,6.33,3.71,0,2.05-1.73,3.04-2.85,3.49,0,0,.77,1.89,2.75,4.16.48.51,1.57,1.41,2.53,1.86,1.15.54,2.3.61,2.62.64v.42c-.51.06-1.73.13-2.4.13ZM130.48,10.44s-.06,1.92-.06,6.27l1.95.32c1.22-.29,2.43-1.5,2.43-3.36,0-2.62-2.18-3.23-4.32-3.23Z"/>
    <path class="cls-1" d="M155.56,19.5v1.66c0,.93.03,1.66.03,1.66l.99.03v.38c-1.09.13-3.87.96-6.66.96-3.81,0-8.61-2.34-8.61-7.3,0-4,3.49-7.42,8.64-7.42,2.75,0,3.9.54,4.7.61.35-.1.45-.29.45-.29h.32l-.29,4.51h-.38s-.16-1.79-.93-2.72c-.96-1.18-2.66-1.31-3.68-1.31-2.78,0-5.66,1.98-5.66,6.37,0,2.27,1.57,6.72,6.75,6.72.64,0,1.38-.13,1.76-.29.03-.38.1-1.25.1-2.08,0-.48-.03-.99-.06-1.38-.06-.99-.42-1.28-1.12-1.5-.67-.22-1.54-.26-1.54-.26v-.42h6.85v.42c-.83.13-1.6.06-1.66,1.63Z"/>
    <path class="cls-1" d="M170.12,23.92h-11.71v-.42c1.25-.19,1.95-.42,2.27-.83.42-.48.45-1.34.48-2.24.03-1.09.03-2.98.03-3.97s0-2.14-.03-3.23c-.03-.99-.06-1.98-.7-2.46-.38-.32-1.12-.51-2.05-.64v-.42s2.43.03,4.06.03h5.57c1.22,0,1.47-.16,1.63-.42h.32l-.06,4.1h-.42c-.06-.35-.13-1.47-.8-2.05-.51-.45-1.34-.64-2.4-.7-.48-.03-1.38-.03-2.46-.03-.03,2.3-.06,5.6-.06,5.6,0,0,1.38,0,2.18-.03.64-.03,1.25-.06,1.54-.26.32-.22.51-1.06.64-1.6h.38v5.09h-.38c-.06-.48-.19-1.5-.67-1.89-.22-.22-.77-.35-1.66-.35h-2.02s0,2.24.03,2.82c.03.93,0,1.79.29,2.3.32.54.86.77,2.11.77,1.02,0,2.21-.32,2.98-1.02.9-.83,1.31-1.82,1.7-3.04l.38.06s-.48,2.98-1.15,4.83Z"/>
  </g>
  <polygon class="cls-1" points="108.76 27.09 107.58 28.14 108.74 29.18 87.42 29.18 59.47 28.14 87.42 27.09 108.76 27.09"/>
  <polygon class="cls-1" points="117.04 27.09 118.09 28.14 117.05 29.18 113.68 29.18 112.64 28.14 113.69 27.09 117.04 27.09"/>
  <polygon class="cls-1" points="171.27 28.14 143.32 29.18 121.99 29.18 123.16 28.14 121.98 27.09 143.32 27.09 171.27 28.14"/>
</svg>